<mxfile host="app.diagrams.net" modified="2020-09-12T07:43:14.435Z" agent="5.0 (Macintosh; Intel Mac OS X 10_15_3) AppleWebKit/537.36 (KHTML, like Gecko) Chrome/85.0.4183.83 Safari/537.36" etag="k5hN-lk3BxPwlzwPqz8K" version="13.6.9" type="github">
  <diagram name="Page-1" id="e7e014a7-5840-1c2e-5031-d8a46d1fe8dd">
    <mxGraphModel dx="1247" dy="872" grid="1" gridSize="10" guides="1" tooltips="1" connect="1" arrows="1" fold="1" page="1" pageScale="1" pageWidth="1169" pageHeight="826" background="#ffffff" math="0" shadow="0">
      <root>
        <mxCell id="0" />
        <mxCell id="1" parent="0" />
        <mxCell id="2" value="Farmer" style="swimlane;whiteSpace=wrap" parent="1" vertex="1">
          <mxGeometry x="159.5" y="128" width="210.5" height="472" as="geometry" />
        </mxCell>
        <mxCell id="5" value="" style="ellipse;shape=startState;fillColor=#000000;strokeColor=#ff0000;" parent="2" vertex="1">
          <mxGeometry x="92.75" y="40" width="30" height="30" as="geometry" />
        </mxCell>
        <mxCell id="6" value="" style="edgeStyle=elbowEdgeStyle;elbow=horizontal;verticalAlign=bottom;endArrow=open;endSize=8;strokeColor=#FF0000;endFill=1;rounded=0;exitX=0.5;exitY=1;exitDx=0;exitDy=0;" parent="2" source="5" target="7" edge="1">
          <mxGeometry x="92.75" y="40" as="geometry">
            <mxPoint x="107.75" y="110" as="targetPoint" />
            <mxPoint x="107.5" y="72" as="sourcePoint" />
          </mxGeometry>
        </mxCell>
        <mxCell id="7" value="harvestItem()" style="" parent="2" vertex="1">
          <mxGeometry x="52.75" y="110" width="110" height="50" as="geometry" />
        </mxCell>
        <mxCell id="8" value="processItem()" style="" parent="2" vertex="1">
          <mxGeometry x="52.75" y="182" width="110" height="50" as="geometry" />
        </mxCell>
        <mxCell id="9" value="" style="endArrow=open;strokeColor=#FF0000;endFill=1;rounded=0" parent="2" source="7" target="8" edge="1">
          <mxGeometry relative="1" as="geometry" />
        </mxCell>
        <mxCell id="10" value="packItem()" style="" parent="2" vertex="1">
          <mxGeometry x="52.75" y="253" width="110" height="50" as="geometry" />
        </mxCell>
        <mxCell id="11" value="" style="endArrow=open;strokeColor=#FF0000;endFill=1;rounded=0" parent="2" source="8" target="10" edge="1">
          <mxGeometry relative="1" as="geometry" />
        </mxCell>
        <mxCell id="icNnoyYbKOANTtmGO7Qn-47" value="sellItem()" style="" vertex="1" parent="2">
          <mxGeometry x="52.75" y="322" width="110" height="50" as="geometry" />
        </mxCell>
        <mxCell id="icNnoyYbKOANTtmGO7Qn-52" value="" style="endArrow=open;strokeColor=#FF0000;endFill=1;rounded=0;entryX=0.5;entryY=0;entryDx=0;entryDy=0;exitX=0.5;exitY=1;exitDx=0;exitDy=0;" edge="1" parent="2" source="10" target="icNnoyYbKOANTtmGO7Qn-47">
          <mxGeometry relative="1" as="geometry">
            <mxPoint x="117.75" y="242" as="sourcePoint" />
            <mxPoint x="117.75" y="263" as="targetPoint" />
          </mxGeometry>
        </mxCell>
        <mxCell id="4" value="Retailer" style="swimlane;whiteSpace=wrap" parent="1" vertex="1">
          <mxGeometry x="580" y="128" width="210" height="472" as="geometry" />
        </mxCell>
        <mxCell id="icNnoyYbKOANTtmGO7Qn-50" value="receiveItem()" style="" vertex="1" parent="4">
          <mxGeometry x="50" y="392" width="110" height="50" as="geometry" />
        </mxCell>
        <mxCell id="icNnoyYbKOANTtmGO7Qn-41" value="Consumer" style="swimlane;whiteSpace=wrap" vertex="1" parent="1">
          <mxGeometry x="790" y="128" width="210" height="472" as="geometry" />
        </mxCell>
        <mxCell id="icNnoyYbKOANTtmGO7Qn-45" value="" style="ellipse;shape=endState;fillColor=#000000;strokeColor=#ff0000" vertex="1" parent="icNnoyYbKOANTtmGO7Qn-41">
          <mxGeometry x="90" y="32" width="30" height="30" as="geometry" />
        </mxCell>
        <mxCell id="icNnoyYbKOANTtmGO7Qn-46" value="" style="endArrow=open;strokeColor=#FF0000;endFill=1;rounded=0;exitX=0.5;exitY=0;exitDx=0;exitDy=0;" edge="1" parent="icNnoyYbKOANTtmGO7Qn-41" source="icNnoyYbKOANTtmGO7Qn-51" target="icNnoyYbKOANTtmGO7Qn-45">
          <mxGeometry relative="1" as="geometry">
            <mxPoint x="105" y="372" as="sourcePoint" />
          </mxGeometry>
        </mxCell>
        <mxCell id="icNnoyYbKOANTtmGO7Qn-51" value="purchaseItem()" style="" vertex="1" parent="icNnoyYbKOANTtmGO7Qn-41">
          <mxGeometry x="50" y="392" width="110" height="50" as="geometry" />
        </mxCell>
        <mxCell id="3" value="Distributor" style="swimlane;whiteSpace=wrap" parent="1" vertex="1">
          <mxGeometry x="370" y="128" width="210" height="472" as="geometry" />
        </mxCell>
        <mxCell id="icNnoyYbKOANTtmGO7Qn-48" value="buyItem()" style="" vertex="1" parent="3">
          <mxGeometry x="50" y="322" width="110" height="50" as="geometry" />
        </mxCell>
        <mxCell id="icNnoyYbKOANTtmGO7Qn-49" value="shipItem()" style="" vertex="1" parent="3">
          <mxGeometry x="50" y="392" width="110" height="50" as="geometry" />
        </mxCell>
        <mxCell id="icNnoyYbKOANTtmGO7Qn-54" value="" style="endArrow=open;strokeColor=#FF0000;endFill=1;rounded=0;entryX=0.5;entryY=0;entryDx=0;entryDy=0;exitX=0.5;exitY=1;exitDx=0;exitDy=0;" edge="1" parent="3" source="icNnoyYbKOANTtmGO7Qn-48" target="icNnoyYbKOANTtmGO7Qn-49">
          <mxGeometry relative="1" as="geometry">
            <mxPoint x="-37.75" y="357" as="sourcePoint" />
            <mxPoint x="60" y="357" as="targetPoint" />
          </mxGeometry>
        </mxCell>
        <mxCell id="icNnoyYbKOANTtmGO7Qn-53" value="" style="endArrow=open;strokeColor=#FF0000;endFill=1;rounded=0;entryX=0;entryY=0.5;entryDx=0;entryDy=0;exitX=1;exitY=0.5;exitDx=0;exitDy=0;" edge="1" parent="1" source="icNnoyYbKOANTtmGO7Qn-47" target="icNnoyYbKOANTtmGO7Qn-48">
          <mxGeometry relative="1" as="geometry">
            <mxPoint x="277.25" y="441" as="sourcePoint" />
            <mxPoint x="277.25" y="460" as="targetPoint" />
          </mxGeometry>
        </mxCell>
        <mxCell id="icNnoyYbKOANTtmGO7Qn-55" value="" style="endArrow=open;strokeColor=#FF0000;endFill=1;rounded=0;entryX=0;entryY=0.5;entryDx=0;entryDy=0;exitX=1;exitY=0.5;exitDx=0;exitDy=0;" edge="1" parent="1" source="icNnoyYbKOANTtmGO7Qn-49" target="icNnoyYbKOANTtmGO7Qn-50">
          <mxGeometry relative="1" as="geometry">
            <mxPoint x="485" y="510" as="sourcePoint" />
            <mxPoint x="485" y="530" as="targetPoint" />
          </mxGeometry>
        </mxCell>
        <mxCell id="icNnoyYbKOANTtmGO7Qn-56" value="" style="endArrow=open;strokeColor=#FF0000;endFill=1;rounded=0;entryX=0;entryY=0.5;entryDx=0;entryDy=0;exitX=1;exitY=0.5;exitDx=0;exitDy=0;" edge="1" parent="1" source="icNnoyYbKOANTtmGO7Qn-50" target="icNnoyYbKOANTtmGO7Qn-51">
          <mxGeometry relative="1" as="geometry">
            <mxPoint x="760" y="545" as="sourcePoint" />
            <mxPoint x="830" y="545" as="targetPoint" />
          </mxGeometry>
        </mxCell>
      </root>
    </mxGraphModel>
  </diagram>
</mxfile>
